Coordinates
version=1
nRows=16
nColumns=33
inDegrees=yes

Units are S.I. units (second, meters, Newtons, ...)
Angles are in degrees.

endheader
time	ground_thorax_rot_x	ground_thorax_rot_y	ground_thorax_rot_z	ground_thorax_tx	ground_thorax_ty	ground_thorax_tz	clav_prot_r	clav_elev_r	scapula_abduction_r	scapula_elevation_r	scapula_upward_rot_r	scapula_winging_r	shoulder_elv_r	plane_of_elev_r	axial_rot_r	elbow_flexion_r	pro_sup_r	wrist_flex_r	wrist_dev_r	clav_prot_l	clav_elev_l	scapula_abduction_l	scapula_elevation_l	scapula_upward_rot_l	scapula_winging_l	shoulder_elv_l	plane_of_elev_l	axial_rot_l	elbow_flexion_l	pro_sup_l	wrist_flex_l	wrist_dev_l
     10.81000000	     24.13695249	     31.78401246	     49.24694022	    -47.07575688	    781.10805165	     10.18641888	     14.09992157	     35.83501917	     32.43153139	     45.00000000	    -45.00000000	  -2235.19795276	  -2274.32563739	    146.26355790	    179.99999979	   1085.42179226	   -304.45798483	     21.79562742	     13.21409275	      6.43092651	    -45.00000000	    -35.49377370	     45.00000000	    -45.00000000	   2250.97102082	  -4783.19611491	    143.28161372	    138.26114795	    366.32850593	     22.67384491	      9.72626843	    -18.10733095
     10.82000000	     24.05827297	     31.83080581	     49.21804537	    -47.38709842	    781.17362604	     10.29089192	     14.05295011	     35.65137938	     32.32603983	     45.00000000	    -45.00000000	  -2235.45054115	  -2274.46766798	    146.03995231	    179.99999979	   1085.52029573	   -304.07787251	     22.11675111	     13.35296800	      6.51394797	    -45.00000000	    -35.90581620	     45.00000000	    -45.00000000	   2251.27622790	  -4783.37727357	    142.92416218	    138.67310624	    366.37889615	     23.35635128	      9.74598769	    -18.24715171
     10.83000000	     24.06956044	     31.73467104	     49.32967175	    -47.75270185	    781.20648610	     10.37010524	     13.97265165	     35.82533425	     32.40301718	     45.00000000	    -45.00000000	  -2235.14055735	  -2274.32161534	    146.28589352	    179.99999979	   1085.60983285	   -303.82027905	     21.88698779	     13.07388320	      6.61306009	    -45.00000000	    -35.50128289	     45.00000000	    -45.00000000	   2250.92305875	  -4783.18514281	    143.28651172	    138.95231427	    366.39945991	     23.98946541	      9.63465349	    -18.27338256
     10.84000000	     24.09427577	     31.74601664	     49.16016735	    -48.14957162	    781.20098266	     10.42572765	     14.13445359	     35.67672942	     32.28325268	     45.00000000	    -45.00000000	  -2235.70592898	  -2274.44292477	    145.71261747	    179.99999979	   1085.65638718	   -303.65793517	     22.36091035	     13.43325439	      6.41695948	    -45.00000000	    -36.05231381	     45.00000000	    -45.00000000	   2251.47204339	  -4783.42507665	    142.73941488	    138.97855585	    366.52019895	     24.45588702	      9.63010422	    -18.38515458
     10.85000000	     24.00269042	     31.84154098	     49.29036851	    -48.60319511	    781.13739427	     10.47842432	     14.02716470	     35.80005092	     32.29185806	     45.00000000	    -45.00000000	  -2235.30372691	  -2274.32460308	    146.21654652	    179.99999979	   1085.64935967	   -303.56692677	     22.00027408	     13.12403944	      6.54887472	    -45.00000000	    -35.71017756	     45.00000000	    -45.00000000	   2250.97206504	  -4783.20252581	    143.15044925	    139.17187094	    366.53501052	     24.94390235	      9.57740119	    -18.41940204
     10.86000000	     24.01396649	     31.78072975	     49.29977739	    -49.09570192	    780.99849771	     10.54912454	     13.98251582	     35.77326514	     32.39334628	     45.00000000	    -45.00000000	  -2235.43799019	  -2274.44384191	    146.15751300	    179.99999979	   1085.53842260	   -303.52872770	     22.17827229	     13.31790100	      6.49227445	    -45.00000000	    -35.76355347	     45.00000000	    -45.00000000	   2251.21368157	  -4783.32841805	    142.95496731	    139.32512971	    366.46220855	     25.28984151	      9.53394916	    -18.45415363
     10.87000000	     24.03650201	     31.68048207	     49.24063701	    -49.65252742	    780.76613698	     10.66145228	     13.94485390	     35.70720662	     32.23515489	     45.00000000	    -45.00000000	  -2235.38754683	  -2274.32362719	    145.98309489	    179.99999979	   1085.64628993	   -303.56569574	     22.06395324	     13.28260746	      6.53211996	    -45.00000000	    -35.39541233	     45.00000000	    -45.00000000	   2251.19132916	  -4783.03905822	    142.90055007	    139.53760910	    366.51337571	     25.49552915	      9.48398446	    -18.47504857
     10.88000000	     24.23503874	     31.66012103	     49.03130368	    -50.30871909	    780.37341774	     10.90460984	     13.93993634	     35.74766810	     32.39257433	     45.00000000	    -45.00000000	  -2235.44833637	  -2274.16568391	    146.15480168	    179.99999979	   1085.78588682	   -303.65971443	     22.21666791	     13.40798890	      6.43526803	    -45.00000000	    -35.71613569	     45.00000000	    -45.00000000	   2251.22566995	  -4783.25533690	    142.84522470	    139.79311488	    366.53971619	     25.67371998	      9.47463614	    -18.51682680
     10.89000000	     24.47369239	     31.42264859	     48.64714186	    -51.03814283	    779.87144025	     11.23290237	     13.87462575	     35.59248462	     32.26687194	     45.00000000	    -45.00000000	  -2235.34164506	  -2273.91681945	    145.97608840	    179.99999979	   1085.99456290	   -303.76722021	     22.15844078	     13.46030292	      6.42773844	    -45.00000000	    -35.54256991	     45.00000000	    -45.00000000	   2251.09550006	  -4783.02824817	    142.70277481	    140.11441840	    366.56385387	     25.77793701	      9.48704260	    -18.54418792
     10.90000000	     24.64554045	     31.33159893	     48.42980605	    -51.79824046	    779.33936843	     11.56773179	     13.93839375	     35.76797300	     32.37041139	     45.00000000	    -45.00000000	  -2235.39391770	  -2273.77369546	    146.14590482	    179.99999979	   1086.27809786	   -303.92772785	     22.29924664	     13.52582889	      6.32501895	    -45.00000000	    -35.69732260	     45.00000000	    -45.00000000	   2251.10689400	  -4783.04953575	    142.59912923	    140.53838351	    366.54342862	     25.83742475	      9.45114711	    -18.55276298
     10.91000000	     24.81621645	     31.19578771	     48.18162535	    -52.51325145	    778.91964960	     11.75063919	     14.03569769	     35.87362874	     32.06106812	     45.00000000	    -45.00000000	  -2235.24436216	  -2273.38168235	    145.90597723	    179.99999979	   1086.41785201	   -304.05036018	     22.15223245	     13.50134378	      6.39652624	    -45.00000000	    -35.45001672	     45.00000000	    -45.00000000	   2250.94742464	  -4782.84977069	    142.55148376	    140.75618008	    366.47137404	     25.92047963	      9.54322038	    -18.57826167
     10.92000000	     24.81072646	     31.21306284	     48.16694829	    -53.17235102	    778.63838681	     11.75679418	     14.01190229	     35.88398377	     32.53991357	     45.00000000	    -45.00000000	  -2235.48787314	  -2273.72678129	    146.32074685	    179.99999979	   1086.34084912	   -304.16841438	     22.33373393	     13.59729481	      6.32158550	    -45.00000000	    -35.82740157	     45.00000000	    -45.00000000	   2251.10638554	  -4782.95518730	    142.52829566	    140.98376198	    366.47564271	     25.97369804	      9.44384208	    -18.56911509
     10.93000000	     24.82980792	     31.25599063	     48.10178109	    -53.74464738	    778.55617419	     11.52158033	     14.10560709	     35.89273852	     32.30832294	     45.00000000	    -45.00000000	  -2235.45809885	  -2273.50547860	    146.10357583	    179.99999979	   1086.22453386	   -304.21663179	     22.14913756	     13.53897285	      6.43949089	    -45.00000000	    -35.72111141	     45.00000000	    -45.00000000	   2251.00899751	  -4782.86603751	    142.58348830	    140.97689202	    366.51401007	     26.07748525	      9.56216541	    -18.62952311
     10.94000000	     24.63761024	     31.18951034	     48.47126333	    -54.26155677	    778.62036534	     11.11152135	     14.04391334	     35.88432053	     32.68480509	     45.00000000	    -45.00000000	  -2235.80551072	  -2274.15212449	    146.04323506	    179.99999979	   1085.85851237	   -304.20911259	     22.27746217	     13.61004290	      6.46237734	    -45.00000000	    -35.63615241	     45.00000000	    -45.00000000	   2251.56894171	  -4782.81728716	    142.56996774	    141.03462374	    366.64662609	     26.11797025	      9.38944524	    -18.62982314
     10.95000000	     24.54013239	     31.41884780	     48.36369327	    -54.77791547	    778.76173195	     10.60376782	     14.10964350	     35.91611805	     32.37018303	     45.00000000	    -45.00000000	  -2235.66489960	  -2273.82983292	    146.10385567	    179.99999979	   1085.79758077	   -304.15192365	     22.11240973	     13.51393379	      6.55373673	    -45.00000000	    -35.66101494	     45.00000000	    -45.00000000	   2251.31261822	  -4782.76199581	    142.66631139	    140.73697195	    366.69959417	     26.25508062	      9.49273419	    -18.68831571
     10.96000000	     24.41060635	     31.55226928	     48.54138140	    -55.36679691	    778.85226555	     10.15132491	     14.03766908	     35.89986695	     32.51465754	     45.00000000	    -45.00000000	  -2236.00069459	  -2274.08802519	    146.07359588	    179.99999979	   1085.56608934	   -304.05327424	     22.20097224	     13.53683296	      6.52345876	    -45.00000000	    -35.73766962	     45.00000000	    -45.00000000	   2251.53948775	  -4782.87156967	    142.65441906	    140.53172704	    366.59757065	     26.36918287	      9.43316176	    -18.66982321
